#!OML:ASF E:/inclinewalkrobotboard/Project1/Captureday1/Session1/subject1.ASF
:FULLY-SPECIFIED
:DEGREES
288
root 0 0 0 2.5143677064951833 -4.095664020804675 2.408058264117866
lowerback 12.100605802016087 1.0309623160198993 -0.35173302067086687
upperback -4.148565658108221 1.2950336810775331 -0.761415553326727
thorax -11.221425543190573 0.5966234617000769 -0.8955698906556204
lowerneck -7.028196422658311 1.3901017145431995 4.313749709977427
upperneck 19.000703435357277 2.8536270798348395 -8.17267030999807
head 7.107394004929258 0.9874127634390012 -3.1639779451971517
rclavicle -1.505048252882443E-15 -1.3856515342767233E-15
rhumerus 17.824892009131084 13.816322442752702 -51.57759092024196
rradius 69.22124506686382
rwrist 23.523964115927022
rhand -32.98636034612836 -49.162366539821235
rfingers 7.125019999999963
rthumb -6.2538663348489045 -79.21319244431817
lclavicle 6.061660521150807E-16 5.246287960670593E-16
lhumerus 18.045310622447772 -14.018880654035895 49.48386975697525
lradius 67.50786990555218
lwrist -18.069012663371065
lhand -44.01644895118747 -60.39526315763162
lfingers 7.1250199999999575
lthumb -16.84719002787866 -30.960733782040595
rfemur -29.41820858465881 -0.03344771940927371 18.09200398263671
rtibia 44.224630612498885
rfoot -27.201502321287073 -17.3788331358533
rtoes -16.427523082557137
lfemur -24.970582744771427 2.571351519139088 -15.98099303775728
ltibia 43.30212712115603
lfoot -28.600283330949672 5.800933841565594
ltoes -15.76588854022792
289
root 0 0 0 2.723464671531337 -4.214487981056255 2.2923539726871054
lowerback 11.982792561442121 1.115137141628813 -0.22867123964135405
upperback -4.178349135675176 1.4189750052100343 -0.7851136335284087
thorax -11.170472246270208 0.6532658184389859 -1.0064464630810077
lowerneck -6.9977043050643095 1.3530291480186507 4.289729371349207
upperneck 18.93148984371545 2.7947562085011075 -8.089357260148647
head 7.080084115977481 0.9669156582793567 -3.1367072877268454
rclavicle -1.4677024619105374E-15 -1.0554628915859742E-15
rhumerus 18.005623009487017 14.092630187439282 -51.78783003809143
rradius 69.3659857099047
rwrist 23.299131551264804
rhand -32.977688895438014 -49.07739822351761
rfingers 7.125019999999963
rthumb -6.245846252628949 -79.12243269030095
lclavicle 8.008762143545921E-16 8.15323000389321E-16
lhumerus 17.976825632580194 -14.008212371804648 49.52649059878925
lradius 67.45804685557921
lwrist -18.036718410960464
lhand -43.98489827872236 -60.26112069427412
lfingers 7.125019999999957
lthumb -16.81592976501545 -30.82215453026797
rfemur -26.64603141470431 0.9920807193713836 19.328729196707574
rtibia 38.06702754402743
rfoot -29.60821526577879 -17.284051968810616
rtoes -18.78116515920413
lfemur -23.60854347283393 1.4731200695482918 -16.091193759135876
ltibia 36.53396935465121
lfoot -30.59397031166451 7.2307393283036125
ltoes -17.839231430648915
290
root 0 0 0 2.83640858440488 -4.260340528338321 2.224773044828912
lowerback 11.884238219535597 1.1599719196497522 -0.16324611774921904
upperback -4.196243822833607 1.4837673294562963 -0.7976526934057252
thorax -11.123181890828153 0.6829661418188405 -1.063602523744182
lowerneck -6.983146074632231 1.3199299682693837 4.27005848631852
upperneck 18.951757065027433 2.743777500490139 -8.033920302969527
head 7.085361128161754 0.9468380033221188 -3.11971443934723
rclavicle -1.4003924987728768E-15 -7.903539602341912E-16
rhumerus 17.912902350795243 14.002666749572148 -51.78464281428096
rradius 69.28956963898801
rwrist 23.314666581013853
rhand -32.957947746310154 -49.00393152781897
rfingers 7.125019999999962
rthumb -6.225332842503914 -79.05026961086575
lclavicle 9.050342524517168E-16 9.914016939710264E-16
lhumerus 17.81387478932306 -13.835562619119989 49.52701141116982
lradius 67.29780968946244
lwrist -18.087972188785713
lhand -43.943891139067404 -60.228812789947135
lfingers 7.125019999999956
lthumb -16.776585349298138 -30.782698610458272
rfemur -24.904836863287244 1.844916318021938 19.96048780669897
rtibia 33.13735666743869
rfoot -29.800414445148448 -16.809994355823115
rtoes -20.346291819322936
lfemur -22.066227167780923 0.5533463850827515 -16.000359436959528
ltibia 32.227131969467614
lfoot -29.59918384912912 7.0532180550588555
ltoes -18.949110466171994
291
root 0 0 0 2.8640500108730103 -4.251654423309306 2.2064217362811616
lowerback 11.817516113292701 1.1707089314739743 -0.14822005730530408
upperback -4.207882142555803 1.4978521051040248 -0.8031074455156612
thorax -11.092703975481513 0.6893156277756056 -1.077946668255193
lowerneck -6.9671664697034155 1.294532255880559 4.262794958687081
upperneck 19.064843127651763 2.706339475977672 -8.02171841945971
head 7.121388321986149 0.9295415013037488 -3.1187134875828626
rclavicle -1.2327966274107458E-15 -6.906806334796752E-16
rhumerus 17.590684636754304 13.595364600287722 -51.58135617924536
rradius 69.02928693329791
rwrist 23.551588464115248
rhand -32.93404031671769 -48.96389953603443
rfingers 7.125019999999962
rthumb -6.199871685600858 -79.01911811827432
lclavicle 9.775509180429466E-16 9.876349584038829E-16
lhumerus 17.588976653401723 -13.525885815959656 49.47977124605073
lradius 67.05596527649675
lwrist -18.221139485381805
lhand -43.90306233701631 -60.31911473601535
lfingers 7.125019999999955
lthumb -16.738288305391876 -30.86551473967852
rfemur -23.99766473795993 2.1363572714213164 19.87498093044202
rtibia 31.910622836509745
rfoot -28.093696442024935 -16.13919062846783
rtoes -21.041944806101505
lfemur -20.608220868411067 -0.0023478889876777376 -15.692906830317657
ltibia 30.95214404335549
lfoot -27.082871327113367 5.8085882699697935
ltoes -19.69201617498997
292
root 0 0 0 2.806383148305346 -4.220229516893416 2.246931710372331
lowerback 11.792939361762379 1.1594463064455263 -0.18456321899526362
upperback -4.215375031805778 1.4769978005646656 -0.8103261584712554
thorax -11.08761656929024 0.6800661193490889 -1.0607623260083527
lowerneck -6.937025125250819 1.2811212222650983 4.268143422168264
upperneck 19.24130073802979 2.688358141538931 -8.049870247113311
head 7.176246482198445 0.9183328190031467 -3.1317953744681635
rclavicle -9.599118519030393E-16 -7.646562687426338E-16
rhumerus 17.14733877861176 13.009120982809685 -51.24901256944011
rradius 68.67226436689005
rwrist 23.928642813272518
rhand -32.91315792055501 -48.967482951760886
rfingers 7.125019999999962
rthumb -6.177493756969536 -79.03897365228738
lclavicle 1.0368395435798524E-15 8.237649032718708E-16
lhumerus 17.371219902784198 -13.159940065847923 49.39042896757033
lradius 66.79961071550538
lwrist -18.4067297408397
lhand -43.876372392885315 -60.52285922997457
lfingers 7.125019999999955
lthumb -16.714054305400225 -31.064828557752318
rfemur -24.142994117584397 1.7176669148472326 19.04404613507423
rtibia 35.18804714836045
rfoot -24.73917064207074 -15.371076229208958
rtoes -20.67951554256017
lfemur -19.24199718418958 -0.06917487510679637 -15.328230166278297
ltibia 32.88653161009405
lfoot -23.91666118425928 3.739194106226325
ltoes -20.3177824250226
293
root 0 0 0 2.6528136154728306 -4.174305017841161 2.364049905127212
lowerback 11.820886659522486 1.1289336635834033 -0.2876222084914838
upperback -4.21426579799345 1.4228855423220257 -0.8238923842029401
thorax -11.110421446612953 0.6565935726943664 -1.0082488848998354
lowerneck -6.898238861522099 1.2858244377534624 4.281116941306324
upperneck 19.42583621128745 2.69796768930503 -8.104081390526247
head 7.232331246099292 0.917890678247712 -3.1522580758474614
rclavicle -6.515995033002053E-16 -9.767486478897428E-16
rhumerus 16.67819521146682 12.370064940274782 -50.85864122729617
rradius 68.29495384524016
rwrist 24.36546759311632
rhand -32.89961612020326 -49.01481921079287
rfingers 7.125019999999962
rthumb -6.1629017858960715 -79.10818793258206
lclavicle 1.066270491696501E-15 5.538059312919274E-16
lhumerus 17.22019178065993 -12.824224323517457 49.27419021876826
lradius 66.5941140969303
lwrist -18.604907940489298
lhand -43.87394682624519 -60.80874039245705
lfingers 7.125019999999955
lthumb -16.71326437897585 -31.349954864389094
rfemur -25.880696347348497 0.5144638833802433 17.396947215811345
rtibia 43.265230890600094
rfoot -19.71821610547617 -14.56487536652766
rtoes -18.87556665338877
lfemur -17.99695606770625 0.4878196414526088 -15.029160040816217
ltibia 38.71844147498604
lfoot -20.438486032001578 0.7927513919213869
ltoes -20.850245678463743
294
root 0 0 0 2.3869746624011823 -4.088821264034571 2.56420041375067
lowerback 11.912707161722212 1.06806992427429 -0.4715094247391568
upperback -4.194111784747648 1.319437116071184 -0.837255170130924
thorax -11.158282538337911 0.6116462367425948 -0.9028183631380586
lowerneck -6.877959715348138 1.314615304318021 4.296144657958262
upperneck 19.554990436504188 2.7432539968365237 -8.16874208591581
head 7.272668641206667 0.9327925750977265 -3.173223754518868
rclavicle -4.1112332218715587E-16 -1.2961907276962746E-15
rhumerus 16.25710520176999 11.776930973930822 -50.46870454468886
rradius 67.95630215362704
rwrist 24.79657666243888
rhand -32.89596638276496 -49.10140368418908
rfingers 7.125019999999963
rthumb -6.158648332195025 -79.21979626873672
lclavicle 1.0232794467905084E-15 2.1718475158242711E-16
lhumerus 17.18429534609698 -12.603325166730304 49.15233338460031
lradius 66.49876612359301
lwrist -18.771523282921695
lhand -43.90211921591413 -61.13060790772482
lfingers 7.125019999999955
lthumb -16.74172202090184 -31.67449036810186
rfemur -29.006423295291288 -0.9792467201681521 15.548179125390558
rtibia 52.81603401313648
rfoot -14.19022338603308 -13.748199443631094
rtoes -15.711690235434896
lfemur -16.885362281368728 1.6955879730819725 -14.911586873548531
ltibia 48.6839478111064
lfoot -16.456625643740185 -3.1475894379709017
ltoes -20.886031750385865
295
root 0 0 0 2.035574731005739 -3.931225944031266 2.7987167494620975
lowerback 12.058122703251717 0.9643602531299876 -0.7073891643212483
upperback -4.147102559870033 1.1543059276004919 -0.8298013583549312
thorax -11.215508408417111 0.5385492374353624 -0.7369321354108636
lowerneck -6.915823141797554 1.3612697945808316 4.30766525256977
upperneck 19.60954562562839 2.8151703495747604 -8.232206470724165
head 7.296992337900269 0.9594624999972986 -3.191156244100239
rclavicle -3.6558829042398247E-16 -1.6683527640863988E-15
rhumerus 15.936219785321784 11.313429557532382 -50.150245656124206
rradius 67.69835743860367
rwrist 25.146724660607916
rhand -32.89797652430824 -49.19097209142481
rfingers 7.125019999999963
rthumb -6.15999912165857 -79.33034768127224
lclavicle 8.224854547405704E-16 -1.0888772899264385E-16
lhumerus 17.262529948945925 -12.5597370438195 49.065149667954614
lradius 66.53534104032212
lwrist -18.85496564759636
lhand -43.94837701244309 -61.3809805865868
lfingers 7.125019999999956
lthumb -16.78734940779362 -31.929607332353083
rfemur -31.905717337335656 -1.972903768712115 14.616511071354685
rtibia 58.94989231118872
rfoot -10.745370896454867 -13.124577787518326
rtoes -12.271391826481343
lfemur -16.335370044798143 3.2282783085465483 -15.10416188727344
ltibia 59.66337914899486
lfoot -11.972216154735696 -7.1760551246922955
ltoes -19.234866614063215
